PathFileType	4	(X/Y/Z)	c:/Users/goper/Files/vsCode/490R/osim_files/A01/A01_Fast_02.trc
DataRate	CameraRate	NumFrames	NumMarkers	Units                	OrigDataRate	OrigDataStartFrame	OrigNumFrames
120.00	120.00	7	36	mm	120.0	1378	1574
                Frame#	Time	Mobility_markerset:LPSIS			Mobility_markerset:LASIS			Mobility_markerset:LTH1			Mobility_markerset:LTH2			Mobility_markerset:LTH3			Mobility_markerset:LTH4			Mobility_markerset:LLFE			Mobility_markerset:LMFE			Mobility_markerset:LSH1			Mobility_markerset:LSH2			Mobility_markerset:LSH3			Mobility_markerset:LSH4			Mobility_markerset:LLMAL			Mobility_markerset:LMMAL			Mobility_markerset:LCAL			Mobility_markerset:LMTP5			Mobility_markerset:LTOE			Mobility_markerset:LMTP1			Mobility_markerset:RPSIS			Mobility_markerset:RASIS			Mobility_markerset:RTH1			Mobility_markerset:RTH2			Mobility_markerset:RTH3			Mobility_markerset:RTH4			Mobility_markerset:RLFE			Mobility_markerset:RMFE			Mobility_markerset:RSH1			Mobility_markerset:RSH2			Mobility_markerset:RSH3			Mobility_markerset:RSH4			Mobility_markerset:RLMAL			Mobility_markerset:RMMAL			Mobility_markerset:RCAL			Mobility_markerset:RMTP1			Mobility_markerset:RTOE			Mobility_markerset:RMTP5		
		X1	Y1	Z1	X2	Y2	Z2	X3	Y3	Z3	X4	Y4	Z4	X5	Y5	Z5	X6	Y6	Z6	X7	Y7	Z7	X8	Y8	Z8	X9	Y9	Z9	X10	Y10	Z10	X11	Y11	Z11	X12	Y12	Z12	X13	Y13	Z13	X14	Y14	Z14	X15	Y15	Z15	X16	Y16	Z16	X17	Y17	Z17	X18	Y18	Z18	X19	Y19	Z19	X20	Y20	Z20	X21	Y21	Z21	X22	Y22	Z22	X23	Y23	Z23	X24	Y24	Z24	X25	Y25	Z25	X26	Y26	Z26	X27	Y27	Z27	X28	Y28	Z28	X29	Y29	Z29	X30	Y30	Z30	X31	Y31	Z31	X32	Y32	Z32	X33	Y33	Z33	X34	Y34	Z34	X35	Y35	Z35	X36	Y36	Z36

1378	11.47500	-3811.88159	1054.59778	1544.77588	0.00000	0.00000	0.00000	-3703.96631	672.57153	1409.29224	-3716.00317	626.83209	1423.34277	-3759.90845	679.88757	1400.63708	-3765.61133	633.56622	1410.04736	0.00000	0.00000	0.00000	-3796.12866	524.80640	1585.93665	-3865.94946	380.23511	1436.76123	-3885.37793	337.31427	1430.57434	-3816.40967	350.22443	1458.69177	0.00000	0.00000	0.00000	-3981.56543	109.53094	1435.72485	-4025.26831	114.54420	1513.68115	-4076.11279	101.71177	1444.35144	-3861.30371	38.54502	1473.37769	-3862.92700	56.84463	1549.98181	0.00000	0.00000	0.00000	-3815.99902	1053.03577	1646.19604	-3591.95459	976.46667	1711.28162	0.00000	0.00000	0.00000	-3592.55786	651.20007	1813.85498	0.00000	0.00000	0.00000	0.00000	0.00000	0.00000	-3558.01562	509.79193	1774.53809	-3549.62183	518.68268	1650.47852	-3602.88525	298.27222	1788.21252	-3588.07275	255.69601	1791.62793	0.00000	0.00000	0.00000	-3535.76807	268.16959	1801.24255	-3509.58813	90.32487	1780.86353	-3480.90088	111.67251	1699.47229	-3542.46338	48.79239	1727.16040	-3338.55298	92.72573	1711.77454	-3317.67798	119.77583	1760.26587	0.00000	0.00000	0.00000
1379	11.48333	-3803.09937	1052.70276	1547.33484	0.00000	0.00000	0.00000	-3693.21533	669.08093	1414.28955	-3708.25220	625.40973	1426.19141	-3752.07666	678.41052	1403.33594	-3757.97314	632.09558	1412.75183	-3753.13599	510.11328	1454.64490	-3788.82788	523.15698	1588.35999	-3860.93164	380.12387	1438.26831	-3880.74292	337.61731	1432.23560	-3811.55298	349.54172	1460.42407	0.00000	0.00000	0.00000	-3980.05371	111.01025	1436.30298	-4023.76904	116.42335	1514.44629	-4074.84277	104.68420	1445.07495	-3860.83472	37.66179	1473.13306	-3862.57251	56.66092	1550.05408	0.00000	0.00000	0.00000	-3807.25610	1051.53308	1648.52490	-3581.49097	976.61969	1714.60645	0.00000	0.00000	0.00000	-3582.66943	650.50476	1815.24146	0.00000	0.00000	0.00000	0.00000	0.00000	0.00000	-3550.67554	507.49442	1775.03748	-3540.21436	518.02911	1653.79651	-3597.30713	296.35446	1789.34033	-3582.63428	253.58618	1792.51367	0.00000	0.00000	0.00000	-3530.00586	265.66666	1800.96094	-3504.73584	86.46874	1779.83813	-3479.58472	108.54002	1698.86108	-3540.74170	48.72934	1727.61438	-3336.27832	88.17109	1707.54700	-3314.21924	115.06295	1754.99109	0.00000	0.00000	0.00000
1380	11.49167	-3794.30884	1050.75732	1549.80518	0.00000	0.00000	0.00000	-3688.18799	669.36884	1414.71558	-3700.29492	623.72827	1428.87000	-3744.20410	677.28955	1406.37891	-3750.02563	630.70795	1415.41858	-3745.40137	508.38519	1457.26843	-3780.91895	521.46759	1590.86194	-3855.20679	380.17737	1440.18359	-3875.72046	338.01691	1434.02209	-3806.85425	348.91284	1462.67090	0.00000	0.00000	0.00000	-3978.55176	112.90096	1436.95264	-4022.06958	118.65283	1515.25085	-4073.41968	108.09239	1445.87097	-3860.69385	37.57090	1473.20166	-3862.23438	56.53002	1550.13318	0.00000	0.00000	0.00000	-3798.48804	1049.94934	1650.81421	-3571.76929	976.66400	1718.12317	0.00000	0.00000	0.00000	-3573.64404	649.05310	1816.22656	0.00000	0.00000	0.00000	0.00000	0.00000	0.00000	-3544.01685	505.18503	1775.94373	0.00000	0.00000	0.00000	-3590.93237	294.59164	1791.21594	-3576.35767	251.77058	1794.17456	0.00000	0.00000	0.00000	-3523.47266	263.63055	1801.19226	-3500.98413	85.04513	1780.89490	-3475.35034	106.77961	1696.74829	-3538.50464	49.04139	1727.85754	-3334.05225	81.79532	1703.80334	-3310.24927	110.11617	1750.13525	0.00000	0.00000	0.00000
1381	11.50000	-3785.59351	1048.87085	1552.13074	0.00000	0.00000	0.00000	-3679.73267	667.63379	1417.46509	-3692.07031	622.00677	1431.51892	-3735.44214	675.30334	1408.88757	-3741.53638	629.08301	1418.29089	0.00000	0.00000	0.00000	-3772.42017	519.69586	1593.42249	-3849.00513	380.58771	1442.50269	-3870.19995	338.46283	1435.78503	-3800.66675	347.72577	1464.35828	0.00000	0.00000	0.00000	-3976.63989	114.94025	1437.59900	-4020.03491	121.13430	1516.08118	-4071.67896	111.81886	1446.65369	-3860.43945	37.48568	1473.34814	-3861.81567	56.41387	1550.28748	0.00000	0.00000	0.00000	-3789.89062	1048.41333	1653.04773	-3562.56836	976.80676	1721.63281	0.00000	0.00000	0.00000	-3565.90112	646.92487	1816.92932	0.00000	0.00000	0.00000	0.00000	0.00000	0.00000	-3537.88281	503.32346	1777.48450	0.00000	0.00000	0.00000	0.00000	0.00000	0.00000	-3569.60132	250.47762	1796.53650	0.00000	0.00000	0.00000	-3516.60767	262.20517	1802.12964	-3496.31470	83.34524	1780.21423	-3471.33032	103.94025	1697.32544	-3536.28833	49.60188	1728.33752	-3329.64307	77.60036	1701.35852	-3306.07666	103.53307	1748.54199	0.00000	0.00000	0.00000
1382	11.50833	-3776.90210	1046.98914	1554.33472	0.00000	0.00000	0.00000	-3670.94702	665.98065	1420.16284	-3681.42261	620.95648	1434.64172	-3726.60864	673.71210	1411.78625	-3732.78516	627.54321	1420.98608	-3728.20898	504.97061	1462.54053	-3763.13330	517.77441	1595.97461	-3842.32446	380.64252	1444.20007	-3864.23633	339.18521	1437.62292	-3794.61255	347.45917	1465.85376	0.00000	0.00000	0.00000	-3974.09253	117.47414	1437.96057	-4017.69043	124.00701	1516.89136	-4069.63330	116.09748	1447.46057	-3859.25562	37.59541	1472.88403	-3861.29590	56.28149	1550.38025	0.00000	0.00000	0.00000	-3781.37207	1046.93909	1655.37097	-3553.18286	977.10583	1725.01221	0.00000	0.00000	0.00000	-3559.52563	644.65057	1817.62732	0.00000	0.00000	0.00000	0.00000	0.00000	0.00000	-3531.71924	501.52859	1780.64111	0.00000	0.00000	0.00000	0.00000	0.00000	0.00000	-3562.86084	249.72569	1799.38489	0.00000	0.00000	0.00000	-3509.99854	261.38617	1803.63208	-3494.05640	83.15053	1782.03467	-3467.82520	102.80754	1697.57605	-3534.49683	50.41713	1728.95825	-3319.29736	73.73486	1702.31714	-3301.88794	96.28654	1750.23328	0.00000	0.00000	0.00000
1383	11.51667	-3768.31909	1045.18848	1556.44043	0.00000	0.00000	0.00000	-3661.66089	664.31201	1422.86475	-3673.73242	618.60669	1437.06616	-3717.36084	672.03186	1414.54492	-3723.41504	625.79791	1423.96912	-3718.18994	502.96133	1465.34961	-3753.29761	515.97693	1598.63550	-3835.04517	381.02127	1446.21631	-3857.65552	339.98419	1439.52307	-3787.78003	346.43375	1468.14807	0.00000	0.00000	0.00000	-3971.66626	120.20656	1438.78943	-4015.01050	127.41175	1517.75818	-4067.25732	120.99615	1448.41650	-3859.82153	37.18591	1473.16382	-3860.77588	56.17011	1550.45935	0.00000	0.00000	0.00000	-3772.98096	1045.48804	1657.69104	-3544.51318	977.09882	1728.46558	0.00000	0.00000	0.00000	-3553.78979	643.13208	1819.38257	0.00000	0.00000	0.00000	0.00000	0.00000	0.00000	-3525.07520	500.68619	1783.79163	0.00000	0.00000	0.00000	-3571.15991	292.97000	1800.03137	-3556.96948	249.83896	1802.27112	0.00000	0.00000	0.00000	-3504.26758	260.91910	1805.87036	-3491.89404	82.21311	1783.14258	-3464.49194	102.26534	1698.98438	-3532.92725	51.15590	1729.55505	-3325.76489	66.71839	1706.29675	-3298.49658	90.07332	1753.17725	0.00000	0.00000	0.00000
1384	11.52500	-3759.83350	1043.50623	1558.46216	0.00000	0.00000	0.00000	-3651.81885	662.71698	1425.61316	-3663.81714	617.01605	1439.80811	-3707.52686	670.36957	1417.49500	-3713.59668	624.12006	1426.77222	-3708.30444	501.38400	1467.89990	-3742.62646	514.23230	1601.36572	-3827.00439	381.73996	1448.74939	-3850.59717	341.03516	1441.51880	-3780.73120	346.47128	1469.68213	0.00000	0.00000	0.00000	-3968.52148	123.56030	1439.81665	-4011.82227	131.29871	1518.81421	-4064.49536	126.54108	1449.58728	0.00000	0.00000	0.00000	-3860.20190	56.08973	1550.53162	0.00000	0.00000	0.00000	-3764.60034	1044.26819	1659.96753	-3535.43799	977.19739	1731.65381	0.00000	0.00000	0.00000	-3548.77563	642.93945	1822.70984	0.00000	0.00000	0.00000	0.00000	0.00000	0.00000	-3517.32520	500.94427	1787.13452	0.00000	0.00000	0.00000	-3565.70728	293.68536	1803.07861	-3552.21021	250.32410	1805.12280	0.00000	0.00000	0.00000	-3499.56860	260.73923	1808.70496	-3490.31982	81.62460	1784.34436	-3460.84521	101.55680	1702.25220	-3531.93921	51.95097	1730.20056	-3324.44922	64.38086	1707.91797	-3296.87158	86.12560	1755.26501	0.00000	0.00000	0.00000
